<svg width="383" height="80" viewBox="0 0 383 80" fill="none" xmlns="http://www.w3.org/2000/svg">
<path d="M56.6667 41.667C56.2246 41.667 55.8007 41.4914 55.4882 41.1788C55.1756 40.8663 55 40.4424 55 40.0003V29.2137L45.4767 19.5003C45.1712 19.1888 45.0001 18.7699 45 18.3337V3.33366C45 2.89163 45.1756 2.46771 45.4882 2.15515C45.8007 1.84259 46.2246 1.66699 46.6667 1.66699H56.6667C57.1087 1.66709 57.5325 1.84274 57.845 2.15533L64.31 8.62033C64.6136 8.93466 64.7816 9.35567 64.7778 9.79266C64.774 10.2297 64.5987 10.6477 64.2897 10.9567C63.9807 11.2657 63.5627 11.441 63.1257 11.4448C62.6887 11.4486 62.2677 11.2806 61.9533 10.977L55.9767 5.00033H48.3333V17.6537L57.8567 27.367C58.1621 27.6785 58.3333 28.0974 58.3333 28.5337V40.0003C58.3333 40.4424 58.1577 40.8663 57.8452 41.1788C57.5326 41.4914 57.1087 41.667 56.6667 41.667Z" fill="#94A0FD"/>
<path d="M3.33317 43.3337C2.89114 43.3337 2.46722 43.1581 2.15466 42.8455C1.8421 42.5329 1.6665 42.109 1.6665 41.667V23.3337C1.6666 22.8917 1.84225 22.4678 2.15484 22.1553L22.1548 2.15533C22.4673 1.84274 22.8912 1.66709 23.3332 1.66699H36.6665C37.1085 1.66699 37.5325 1.84259 37.845 2.15515C38.1576 2.46771 38.3332 2.89163 38.3332 3.33366C38.3332 3.77569 38.1576 4.19961 37.845 4.51217C37.5325 4.82473 37.1085 5.00033 36.6665 5.00033H24.0232L4.99984 24.0237V41.667C4.99984 42.109 4.82424 42.5329 4.51168 42.8455C4.19912 43.1581 3.7752 43.3337 3.33317 43.3337Z" fill="#94A0FD"/>
<path d="M13.3332 53.3336H3.33317C2.89114 53.3336 2.46722 53.158 2.15466 52.8454C1.8421 52.5328 1.6665 52.1089 1.6665 51.6669C1.6665 51.2249 1.8421 50.8009 2.15466 50.4884C2.46722 50.1758 2.89114 50.0002 3.33317 50.0002H11.6665V35.0002C11.6666 34.5582 11.8423 34.1344 12.1548 33.8219L25.2882 20.6886C25.6025 20.385 26.0235 20.217 26.4605 20.2208C26.8975 20.2246 27.3155 20.3998 27.6245 20.7089C27.9335 21.0179 28.1088 21.4359 28.1126 21.8729C28.1164 22.3099 27.9484 22.7309 27.6448 23.0452L14.9998 35.6902V51.6669C14.9998 52.1089 14.8242 52.5328 14.5117 52.8454C14.1991 53.158 13.7752 53.3336 13.3332 53.3336V53.3336Z" fill="#96D7FC"/>
<path d="M56.6665 78.3337H43.3332C42.8911 78.3337 42.4672 78.1581 42.1547 77.8455C41.8421 77.5329 41.6665 77.109 41.6665 76.667C41.6665 76.225 41.8421 75.801 42.1547 75.4885C42.4672 75.1759 42.8911 75.0003 43.3332 75.0003H55.9765L74.9998 55.977V38.3337C74.9998 37.8916 75.1754 37.4677 75.488 37.1551C75.8006 36.8426 76.2245 36.667 76.6665 36.667C77.1085 36.667 77.5325 36.8426 77.845 37.1551C78.1576 37.4677 78.3332 37.8916 78.3332 38.3337V56.667C78.3331 57.109 78.1574 57.5328 77.8448 57.8453L57.8448 77.8453C57.5324 78.1579 57.1085 78.3336 56.6665 78.3337V78.3337Z" fill="#94A0FD"/>
<path d="M33.3331 78.334H23.3331C22.8911 78.3339 22.4672 78.1582 22.1547 77.8457L15.6881 71.379C15.3845 71.0647 15.2165 70.6436 15.2203 70.2067C15.2241 69.7697 15.3994 69.3516 15.7084 69.0426C16.0174 68.7336 16.4354 68.5583 16.8724 68.5545C17.3094 68.5507 17.7304 68.7187 18.0447 69.0223L24.0231 75.0007H31.6664V62.3573L22.1547 52.8457C21.8422 52.5332 21.6665 52.1093 21.6664 51.6673V40.0007C21.6664 39.5586 21.842 39.1347 22.1546 38.8221C22.4671 38.5096 22.891 38.334 23.3331 38.334C23.7751 38.334 24.199 38.5096 24.5116 38.8221C24.8241 39.1347 24.9997 39.5586 24.9997 40.0007V50.9773L34.5114 60.489C34.824 60.8015 34.9996 61.2253 34.9997 61.6673V76.6673C34.9997 77.1093 34.8241 77.5333 34.5116 77.8458C34.199 78.1584 33.7751 78.334 33.3331 78.334Z" fill="#94A0FD"/>
<path d="M53.533 59.8003C53.2034 59.8003 52.8813 59.7025 52.6072 59.5193C52.3332 59.3362 52.1197 59.0759 51.9935 58.7714C51.8674 58.4669 51.8344 58.1319 51.8987 57.8086C51.963 57.4854 52.1217 57.1884 52.3547 56.9553L64.9997 44.3103V28.3337C64.9997 27.8916 65.1753 27.4677 65.4878 27.1551C65.8004 26.8426 66.2243 26.667 66.6663 26.667H76.6663C77.1084 26.667 77.5323 26.8426 77.8449 27.1551C78.1574 27.4677 78.333 27.8916 78.333 28.3337C78.333 28.7757 78.1574 29.1996 77.8449 29.5122C77.5323 29.8247 77.1084 30.0003 76.6663 30.0003H68.333V45.0003C68.3329 45.4423 68.1573 45.8662 67.8447 46.1787L54.7113 59.312C54.3989 59.6246 53.975 59.8002 53.533 59.8003Z" fill="#96D7FC"/>
<path d="M39.9997 46.6673C38.6811 46.6673 37.3922 46.2763 36.2959 45.5438C35.1996 44.8112 34.3451 43.7701 33.8405 42.5519C33.3359 41.3337 33.2039 39.9933 33.4611 38.7001C33.7183 37.4068 34.3533 36.219 35.2856 35.2866C36.218 34.3543 37.4059 33.7193 38.6991 33.4621C39.9923 33.2049 41.3327 33.3369 42.5509 33.8415C43.7691 34.346 44.8103 35.2005 45.5428 36.2969C46.2754 37.3932 46.6663 38.6821 46.6663 40.0007C46.6663 41.7688 45.964 43.4645 44.7137 44.7147C43.4635 45.9649 41.7678 46.6673 39.9997 46.6673Z" fill="#2A3EF3"/>
<path d="M66.6667 20.0003C65.3481 20.0003 64.0592 19.6093 62.9629 18.8768C61.8665 18.1442 61.0121 17.1031 60.5075 15.8849C60.0029 14.6667 59.8709 13.3263 60.1281 12.0331C60.3853 10.7399 61.0203 9.55197 61.9526 8.61962C62.885 7.68727 64.0729 7.05233 65.3661 6.79509C66.6593 6.53786 67.9997 6.66988 69.2179 7.17446C70.4361 7.67905 71.4773 8.53353 72.2098 9.62986C72.9423 10.7262 73.3333 12.0151 73.3333 13.3337C73.3333 15.1018 72.631 16.7975 71.3807 18.0477C70.1305 19.2979 68.4348 20.0003 66.6667 20.0003Z" fill="#2A3EF3"/>
<path d="M13.3332 73.3333C12.0146 73.3333 10.7257 72.9423 9.62937 72.2098C8.53304 71.4773 7.67856 70.4361 7.17398 69.2179C6.66939 67.9997 6.53737 66.6593 6.79461 65.3661C7.05184 64.0729 7.68678 62.885 8.61913 61.9526C9.55148 61.0203 10.7394 60.3853 12.0326 60.1281C13.3258 59.8709 14.6662 60.0029 15.8844 60.5075C17.1026 61.0121 18.1438 61.8665 18.8763 62.9629C19.6088 64.0592 19.9998 65.3481 19.9998 66.6667C19.9998 68.4348 19.2975 70.1305 18.0472 71.3807C16.797 72.631 15.1013 73.3333 13.3332 73.3333Z" fill="#2A3EF3"/>
<path d="M29.9997 25.0003C28.6811 25.0003 27.3922 24.6093 26.2959 23.8768C25.1995 23.1443 24.3451 22.1031 23.8405 20.8849C23.3359 19.6667 23.2039 18.3263 23.4611 17.0331C23.7183 15.7399 24.3533 14.552 25.2856 13.6196C26.218 12.6873 27.4059 12.0523 28.6991 11.7951C29.9923 11.5379 31.3327 11.6699 32.5509 12.1745C33.7691 12.679 34.8103 13.5335 35.5428 14.6299C36.2754 15.7262 36.6663 17.0151 36.6663 18.3337C36.6663 20.1018 35.964 21.7975 34.7137 23.0477C33.4635 24.298 31.7678 25.0003 29.9997 25.0003Z" fill="#41B8FD"/>
<path d="M49.9997 68.3333C48.6811 68.3333 47.3922 67.9423 46.2959 67.2098C45.1996 66.4773 44.3451 65.4361 43.8405 64.2179C43.3359 62.9997 43.2039 61.6593 43.4611 60.3661C43.7183 59.0729 44.3533 57.885 45.2856 56.9526C46.218 56.0203 47.4059 55.3853 48.6991 55.1281C49.9923 54.8709 51.3327 55.0029 52.5509 55.5075C53.7691 56.0121 54.8103 56.8665 55.5428 57.9629C56.2754 59.0592 56.6663 60.3481 56.6663 61.6667C56.6663 63.4348 55.964 65.1305 54.7137 66.3807C53.4635 67.631 51.7678 68.3333 49.9997 68.3333Z" fill="#41B8FD"/>
<g filter="url(#filter0_ii_30_838)">
<path d="M114 65.2024V45.6254L116.828 42.8701L119.511 45.6254V59.3293L114 65.2024ZM138.073 42.8701L140.828 45.6254V59.3293L138.073 62.3746L135.317 59.3293V45.6254L138.073 42.8701ZM120.453 39.2447H134.157L137.202 42L134.157 44.7553H120.453L117.698 41.9275L120.453 39.2447ZM134.157 60.4169L137.057 63.1722L134.157 65.9275H115.16L120.453 60.4169H134.157ZM140.828 24.7432V38.4471L138.073 41.2749L135.317 38.4471V24.7432L138.073 21.6979L140.828 24.7432ZM116.755 41.2749L114 38.4471V19.2326L119.511 24.7432V38.4471L116.755 41.2749ZM114.798 18.2175H134.375L136.985 20.9728L134.375 23.7281H120.671L114.798 18.2175Z" fill="#040E31"/>
<path d="M156.359 42.8701L159.042 45.6979V62.9547L156.287 66L153.531 62.9547V45.6979L156.359 42.8701ZM159.042 20.9728V38.3021L156.359 41.3474L153.531 38.3021V20.9728L156.287 18.145L159.042 20.9728Z" fill="#040E31"/>
<path d="M182.306 42.8701L184.989 45.6979V62.9547L182.234 66L179.479 62.9547V45.6979L182.306 42.8701ZM195.938 20.7553L192.893 23.5106H172.01L169.183 20.8278L172.01 18H192.893L195.938 20.7553ZM179.479 25.1057H184.989V38.8097L182.306 41.6375L179.479 38.8097V25.1057Z" fill="#040E31"/>
</g>
<path d="M211.806 59.3293L208.979 62.3746L206.296 59.3293V45.6254L209.051 42.8701L211.806 45.6254V59.3293ZM229.136 60.4169L232.036 63.1722L229.136 65.9275H212.749L210.066 63.0997L212.749 60.4169H229.136ZM233.051 24.7432V38.4471L230.296 41.2749L227.541 38.4471V24.7432L230.368 21.6979L233.051 24.7432ZM208.979 41.2749L206.296 38.4471V24.7432L209.051 21.6979L211.806 24.7432V38.4471L208.979 41.2749ZM212.894 23.7281L209.994 20.9003L212.894 18.2175H226.598L229.281 20.9728L226.598 23.7281H212.894Z" fill="#2A3EF3"/>
<path d="M245.492 42.8701L248.175 45.6979V62.9547L245.42 66L242.664 62.9547V45.6979L245.492 42.8701ZM248.175 20.9728V38.3021L245.492 41.3474L242.664 38.3021V20.9728L245.42 18.145L248.175 20.9728Z" fill="#2A3EF3"/>
<path d="M268.85 42.8701L271.533 45.6979V62.9547L268.777 66L266.022 62.9547V45.6979L268.85 42.8701ZM282.481 20.7553L279.436 23.5106H258.554L255.726 20.8278L258.554 18H279.436L282.481 20.7553ZM266.022 25.1057H271.533V38.8097L268.85 41.6375L266.022 38.8097V25.1057Z" fill="#2A3EF3"/>
<path d="M315.647 21.2628V38.5196L312.819 41.3474L310.136 38.5196V21.2628L312.892 18.2175L315.647 21.2628ZM294.33 38.5196V21.2628L291.575 18.2175L288.819 21.2628V38.5196L291.575 41.3474L294.33 38.5196ZM310.064 45.6979V59.3293L312.819 62.3746L315.575 59.3293V45.6979L312.819 42.8701L310.064 45.6979ZM295.2 44.7553H308.904L311.949 42.0725L308.904 39.2447H295.2L292.445 42L295.2 44.7553ZM292.952 60.4169L290.269 63.1722L292.952 65.9275H308.904L311.804 63.2447L308.904 60.4169H292.952Z" fill="#2A3EF3"/>
<defs>
<filter id="filter0_ii_30_838" x="114" y="14" width="81.938" height="56" filterUnits="userSpaceOnUse" color-interpolation-filters="sRGB">
<feFlood flood-opacity="0" result="BackgroundImageFix"/>
<feBlend mode="normal" in="SourceGraphic" in2="BackgroundImageFix" result="shape"/>
<feColorMatrix in="SourceAlpha" type="matrix" values="0 0 0 0 0 0 0 0 0 0 0 0 0 0 0 0 0 0 127 0" result="hardAlpha"/>
<feOffset dy="-4"/>
<feGaussianBlur stdDeviation="4"/>
<feComposite in2="hardAlpha" operator="arithmetic" k2="-1" k3="1"/>
<feColorMatrix type="matrix" values="0 0 0 0 0 0 0 0 0 0 0 0 0 0 0 0 0 0 0.4 0"/>
<feBlend mode="overlay" in2="shape" result="effect1_innerShadow_30_838"/>
<feColorMatrix in="SourceAlpha" type="matrix" values="0 0 0 0 0 0 0 0 0 0 0 0 0 0 0 0 0 0 127 0" result="hardAlpha"/>
<feOffset dy="4"/>
<feGaussianBlur stdDeviation="2"/>
<feComposite in2="hardAlpha" operator="arithmetic" k2="-1" k3="1"/>
<feColorMatrix type="matrix" values="0 0 0 0 1 0 0 0 0 1 0 0 0 0 1 0 0 0 0.6 0"/>
<feBlend mode="overlay" in2="effect1_innerShadow_30_838" result="effect2_innerShadow_30_838"/>
</filter>
</defs>
</svg>
